<svg fill="none" xmlns="http://www.w3.org/2000/svg" viewBox="0 0 16 16"><defs><filter id="glow" x="-30%" y="-30%" width="160%" height="160%"><feGaussianBlur stdDeviation="0.5" result="blur"/><feComposite in="SourceGraphic" in2="blur" operator="over"/></filter></defs><path filter="url(#glow)" fill-rule="evenodd" clip-rule="evenodd" d="M1.5 2.5h13v10a1 1 0 0 1-1 1h-11a1 1 0 0 1-1-1zM0 1h16v11.5a2.5 2.5 0 0 1-2.5 2.5h-11A2.5 2.5 0 0 1 0 12.5zm3.75 4.5a.75.75 0 1 0 0-1.5.75.75 0 0 0 0 1.5M7 4.75a.75.75 0 1 1-1.5 0 .75.75 0 0 1 1.5 0m1.75.75a.75.75 0 1 0 0-1.5.75.75 0 0 0 0 1.5" fill="#e94560" stroke="#e94560" stroke-width="0.2"/></svg>